Patient4_TMGait_0pt2_01_right_16_GRF.mot
version=1
nRows=26
nColumns=19
inDegrees=no
endheader
time	F1x	F1y	F1z	M1x	M1y	M1z	F2x	F2y	F2z	M2x	M2y	M2z	EC1x	EC1y	EC1z	EC2x	EC2y	EC2z
35.44	-15.0143	650.3692	41.6248	-222.2186	-43.4514	628.0701	16.3956	151.4421	-15.7262	56.0128	7.1412	118.907	-0.0592	0.0182	-0.0073	-0.0462	0.0165	0.9585
35.4639	-15.577	677.7451	43.4285	-231.4986	-44.9724	651.4799	13.8288	136.301	-14.5874	50.3959	7.0457	107.067	-0.0592	0.0182	-0.0073	-0.0462	0.0165	0.9585
35.4877	-16.0959	709.8079	45.6531	-242.4146	-46.7796	678.6952	10.7911	118.0213	-13.1675	43.6192	6.8996	92.7791	-0.0592	0.0182	-0.0073	-0.0462	0.0165	0.9585
35.5116	-16.4099	744.0098	48.1535	-254.0979	-48.7096	707.3577	7.4939	97.6908	-11.4891	36.0898	6.6555	76.8887	-0.0592	0.0182	-0.0073	-0.0462	0.0165	0.9585
35.5354	-16.3688	776.9093	50.7576	-265.3653	-50.5852	734.3085	4.2614	76.7575	-9.5989	28.3474	6.2429	60.5238	-0.0592	0.0182	-0.0073	-0.0462	0.0165	0.9585
35.5593	-15.8647	804.7143	53.2806	-274.9137	-52.2329	756.1144	1.4633	56.7462	-7.5791	20.9568	5.5964	44.8795	-0.0592	0.0182	-0.0073	-0.0462	0.0165	0.9585
35.5831	-14.8355	824.1355	55.5064	-281.6196	-53.4607	769.8432	-0.58435	38.9772	-5.5511	14.4048	4.6908	30.9861	-0.0592	0.0182	-0.0073	-0.0462	0.0165	0.9585
35.607	-13.2423	833.212	57.1989	-284.8243	-54.055	773.7852	-1.7358	24.3664	-3.6675	9.0261	3.585	19.5438	-0.0592	0.0182	-0.0073	-0.0462	0.0165	0.9585
35.6309	-11.0486	831.7586	58.1502	-284.4841	-53.8156	767.8286	-2.1402	13.308	-2.08	4.9621	2.446	10.8471	-0.0592	0.0182	-0.0073	-0.0462	0.0165	0.9585
35.6547	-8.2171	821.359	58.2356	-281.1607	-52.6068	753.4284	-2.0719	5.585	-0.86312	2.1307	1.4287	4.7196	-0.0592	0.0182	-0.0073	-0.0462	0.0165	0.9585
35.6786	-4.7249	804.9107	57.4471	-275.858	-50.3948	733.1963	-1.7426	0.54962	-0.00091887	0.29171	0.59592	0.64003	-0.0592	0.0182	-0.0073	-0.0462	0.0165	0.9585
35.7024	-0.59851	785.8688	55.8934	-269.7621	-47.2665	710.2371	-1.2962	-2.5915	0.56504	-0.8489	-0.047841	-2.0338	-0.0592	0.0182	-0.0073	-0.0462	0.0165	0.9585
35.7263	4.077	767.5287	53.7757	-263.9923	-43.4116	687.5028	-0.81587	-4.5903	0.90458	-1.5715	-0.52937	-3.8995	-0.0592	0.0182	-0.0073	-0.0462	0.0165	0.9585
35.7501	9.1748	752.473	51.3727	-259.4119	-39.1025	667.3029	-0.3385	-6.0394	1.0763	-2.0984	-0.87976	-5.4119	-0.0592	0.0182	-0.0073	-0.0462	0.0165	0.9585
35.774	14.5602	742.2409	49.0115	-256.5197	-34.6616	651.0283	0.12724	-7.2945	1.1182	-2.5655	-1.1171	-6.8142	-0.0592	0.0182	-0.0073	-0.0462	0.0165	0.9585
35.7979	20.1158	737.2198	47.008	-255.4177	-30.4024	639.0884	0.58041	-8.4191	1.0427	-3.0026	-1.2347	-8.0769	-0.0592	0.0182	-0.0073	-0.0462	0.0165	0.9585
35.8217	25.7164	736.6812	45.6228	-255.8225	-26.5972	630.9529	1.0116	-9.1364	0.83559	-3.3181	-1.1998	-8.8465	-0.0592	0.0182	-0.0073	-0.0462	0.0165	0.9585
35.8456	31.226	738.9589	45.0162	-257.1272	-23.4452	625.317	1.3867	-8.7921	0.45711	-3.2836	-0.94587	-8.4123	-0.0592	0.0182	-0.0073	-0.0462	0.0165	0.9585
35.8694	36.5105	741.8054	45.2126	-258.5272	-21.0396	620.4143	1.63	-6.3305	-0.15218	-2.5226	-0.36986	-5.6762	-0.0592	0.0182	-0.0073	-0.0462	0.0165	0.9585
35.8933	41.4351	742.748	46.1076	-259.1479	-19.3711	614.3264	1.6104	-0.3128	-1.0618	-0.51217	0.66145	0.82807	-0.0592	0.0182	-0.0073	-0.0462	0.0165	0.9585
35.9171	45.8545	739.416	47.4812	-258.1609	-18.3452	605.2545	1.136	10.9826	-2.3297	3.3866	2.2876	12.8258	-0.0592	0.0182	-0.0073	-0.0462	0.0165	0.9585
35.941	49.5986	729.8222	49.0159	-254.8826	-17.7993	591.7423	-0.043903	29.3268	-3.9662	9.8494	4.6132	32.0457	-0.0592	0.0182	-0.0073	-0.0462	0.0165	0.9585
35.9649	52.4445	712.5044	50.3318	-248.8232	-17.5332	572.7845	-2.2205	56.113	-5.8894	19.4407	7.6512	59.7595	-0.0592	0.0182	-0.0073	-0.0462	0.0165	0.9585
35.9887	54.1227	686.5715	51.0143	-239.6993	-17.3282	547.8504	-5.6412	91.8413	-7.8966	32.4264	11.259	96.2591	-0.0592	0.0182	-0.0073	-0.0462	0.0165	0.9585
36.0126	54.3762	651.8196	50.6828	-227.4695	-16.9811	516.9479	-10.2425	136.1534	-9.8386	48.7535	15.2356	140.9456	-0.0592	0.0182	-0.0073	-0.0462	0.0165	0.9585
36.0364	53.0281	608.7802	49.0939	-212.3445	-16.3623	480.6222	-15.521	188.0683	-11.8102	68.0934	19.4667	192.6298	-0.0592	0.0182	-0.0073	-0.0462	0.0165	0.9585
